HIERARCHY
ROOT joint_Root
{
	OFFSET 0.0 0.0 0.0
	CHANNELS 6 Xposition Yposition Zposition Zrotation Xrotation Yrotation 
	JOINT Hips
	{
		OFFSET 4.5925 91.4895 -427.239
		CHANNELS 6 Xposition Yposition Zposition Zrotation Xrotation Yrotation 
		JOINT Spine
		{
			OFFSET 15.7357 0.0 0.0
			CHANNELS 6 Xposition Yposition Zposition Zrotation Xrotation Yrotation 
			JOINT Chest
			{
				OFFSET 8.98455 -0.406207 0.0
				CHANNELS 6 Xposition Yposition Zposition Zrotation Xrotation Yrotation 
				JOINT Neck
				{
					OFFSET 16.3773 0.0 0.0
					CHANNELS 6 Xposition Yposition Zposition Zrotation Xrotation Yrotation 
					JOINT Head
					{
						OFFSET 6.45672 0.0 0.0
						CHANNELS 6 Xposition Yposition Zposition Zrotation Xrotation Yrotation 
						End Site
						{
							OFFSET 0.0 0.0 0.0
						}
					}
				}
				JOINT Shoulder_L
				{
					OFFSET 12.9942 -0.242716 4.98039
					CHANNELS 6 Xposition Yposition Zposition Zrotation Xrotation Yrotation 
					JOINT UpperArm_L
					{
						OFFSET 5.34809 0.0 0.0
						CHANNELS 6 Xposition Yposition Zposition Zrotation Xrotation Yrotation 
						JOINT LowerArm_L
						{
							OFFSET 24.3286 1.87007e-05 0.0
							CHANNELS 6 Xposition Yposition Zposition Zrotation Xrotation Yrotation 
							JOINT Hand_L
							{
								OFFSET 22.2916 0.0 0.0
								CHANNELS 6 Xposition Yposition Zposition Zrotation Xrotation Yrotation 
								End Site
								{
									OFFSET 0.0 0.0 0.0
								}
							}
						}
					}
				}
				JOINT Shoulder_R
				{
					OFFSET 12.9945 -0.242716 -4.98039
					CHANNELS 6 Xposition Yposition Zposition Zrotation Xrotation Yrotation 
					JOINT UpperArm_R
					{
						OFFSET -5.34813 0.0 0.0
						CHANNELS 6 Xposition Yposition Zposition Zrotation Xrotation Yrotation 
						JOINT LowerArm_R
						{
							OFFSET -24.3289 0.000322201 0.0
							CHANNELS 6 Xposition Yposition Zposition Zrotation Xrotation Yrotation 
							JOINT Hand_R
							{
								OFFSET -22.2915 -0.000108084 0.0
								CHANNELS 6 Xposition Yposition Zposition Zrotation Xrotation Yrotation 
								End Site
								{
									OFFSET 0.0 0.0 0.0
								}
							}
						}
					}
				}
			}
		}
		JOINT UpperLeg_L
		{
			OFFSET -2.19248 -6.46944 0.0
			CHANNELS 6 Xposition Yposition Zposition Zrotation Xrotation Yrotation 
			JOINT LowerLeg_L
			{
				OFFSET 39.0811 0.0 -1.23785e-05
				CHANNELS 6 Xposition Yposition Zposition Zrotation Xrotation Yrotation 
				JOINT Foot_L
				{
					OFFSET 40.9854 0.0 -1.26872e-05
					CHANNELS 6 Xposition Yposition Zposition Zrotation Xrotation Yrotation 
					JOINT Toes_L
					{
						OFFSET 11.7543 0.0 0.0
						CHANNELS 6 Xposition Yposition Zposition Zrotation Xrotation Yrotation 
						End Site
						{
							OFFSET 0.0 0.0 0.0
						}
					}
				}
			}
		}
		JOINT UpperLeg_R
		{
			OFFSET -2.19251 6.46944 0.0
			CHANNELS 6 Xposition Yposition Zposition Zrotation Xrotation Yrotation 
			JOINT LowerLeg_R
			{
				OFFSET -39.0811 -0.00228153 -0.0401928
				CHANNELS 6 Xposition Yposition Zposition Zrotation Xrotation Yrotation 
				JOINT Foot_R
				{
					OFFSET -40.9854 0.0 0.0
					CHANNELS 6 Xposition Yposition Zposition Zrotation Xrotation Yrotation 
					JOINT Toes_R
					{
						OFFSET -11.7543 0.0 0.0
						CHANNELS 6 Xposition Yposition Zposition Zrotation Xrotation Yrotation 
						End Site
						{
							OFFSET 0.0 0.0 0.0
						}
					}
				}
			}
		}
	}
}
MOTION
Frames:	4
Frame Time:	0.0333333
0.000000 0.000000 0.000000 0.000000 0.000000 -0.000000 -1.632830 92.567800 0.179562 89.118600 1.273490 2.044420 15.735700 0.000005 -0.000001 72.194700 87.508300 -71.800600 8.984550 -0.406207 -0.000000 -3.016310 -1.560280 0.747393 16.377300 -0.000001 -0.000001 4.215770 -2.855070 1.499960 6.456720 -0.000001 -0.000000 -0.951242 -2.353470 2.308440 12.994200 -0.242716 4.980390 -84.594900 -9.982020 -61.372100 5.348090 -0.000007 -0.000001 -57.030000 -62.834600 -97.110100 24.328600 0.000019 0.000005 8.401040 6.539770 -52.362200 22.291600 -0.000001 0.000005 14.808200 5.360620 -1.698400 12.994500 -0.242716 -4.980390 93.933000 -9.481340 -67.346000 -5.348130 -0.000001 -0.000004 -39.952100 -65.857700 -79.581600 -24.328900 0.000322 -0.000009 -6.511760 -5.678470 -49.078300 -22.291500 -0.000108 -0.000004 20.467500 5.534120 -7.975400 -2.192480 -6.469440 -0.000000 -174.916000 -13.342500 -3.409120 39.081100 -0.000007 -0.000012 -0.081808 0.226633 19.848200 40.985400 -0.000006 -0.000013 -0.195625 10.684000 -64.293300 11.754300 -0.000000 0.000003 -0.000136 -0.001336 -16.628500 -2.192510 6.469440 -0.000001 177.397000 26.351800 178.743000 -39.081100 -0.002282 -0.040193 0.003751 -0.001257 18.778000 -40.985400 0.000008 0.000006 6.191080 15.286300 -66.388600 -11.754300 -0.000006 -0.000006 -0.001551 -0.022943 -17.506000
0.000000 0.000000 0.000000 0.000000 0.000000 -0.000000 -1.666330 92.572600 0.139263 89.164100 1.000050 2.113150 15.735700 0.000005 -0.000001 73.675800 87.417300 -73.322900 8.984550 -0.406207 -0.000000 -2.804610 -1.483840 0.669527 16.377300 -0.000001 -0.000001 3.937470 -2.839800 1.434870 6.456720 -0.000001 -0.000000 -1.386700 -2.291740 2.473030 12.994200 -0.242716 4.980390 -85.297100 -8.901300 -62.002400 5.348090 -0.000007 -0.000001 -49.740100 -61.955100 -87.492900 24.328600 0.000019 0.000005 8.531940 5.704390 -56.475600 22.291600 -0.000001 0.000005 13.833400 5.358240 -1.625380 12.994500 -0.242716 -4.980390 93.371500 -8.354320 -67.929800 -5.348130 -0.000001 -0.000004 -34.457500 -63.247500 -71.559900 -24.328900 0.000322 -0.000009 -6.155660 -4.490130 -54.025900 -22.291500 -0.000108 -0.000004 19.992600 5.517890 -7.272590 -2.192480 -6.469440 -0.000000 -174.945000 -13.412300 -3.282290 39.081100 -0.000007 -0.000012 -0.079133 0.220222 19.765000 40.985400 -0.000006 -0.000013 -0.253614 10.465600 -64.242600 11.754300 -0.000000 0.000003 -0.000144 -0.001405 -16.631000 -2.192510 6.469440 -0.000001 177.218000 26.553000 178.831000 -39.081100 -0.002282 -0.040193 -0.010070 0.039543 18.711600 -40.985400 0.000008 0.000006 5.721340 15.916700 -66.196800 -11.754300 -0.000006 -0.000006 -0.001474 -0.021931 -17.464900
0.000000 0.000000 0.000000 0.000000 0.000000 -0.000000 -1.687740 92.548700 0.110772 89.222900 0.570509 2.336120 15.735700 0.000005 -0.000001 75.740300 87.253100 -75.436400 8.984550 -0.406207 -0.000000 -2.438010 -1.379860 0.578468 16.377300 -0.000001 -0.000001 3.412070 -2.769330 1.391820 6.456720 -0.000001 -0.000000 -1.670680 -2.247490 2.619340 12.994200 -0.242716 4.980390 -86.040800 -7.725230 -62.757600 5.348090 -0.000007 -0.000001 -42.898500 -59.682900 -76.986500 24.328600 0.000019 0.000005 8.682100 4.768970 -61.433100 22.291600 -0.000001 0.000005 13.100400 5.353680 -1.487320 12.994500 -0.242716 -4.980390 92.744800 -7.024340 -68.594100 -5.348130 -0.000001 -0.000004 -30.838000 -59.071700 -64.127700 -24.328900 0.000322 -0.000009 -5.756350 -3.311320 -60.185700 -22.291500 -0.000108 -0.000004 19.359400 5.500970 -6.571900 -2.192480 -6.469440 -0.000000 -174.924000 -13.585700 -3.056550 39.081100 -0.000007 -0.000012 -0.084143 0.232755 19.875300 40.985400 -0.000006 -0.000013 -0.298157 10.272700 -64.315300 11.754300 -0.000000 0.000003 -0.000145 -0.001409 -16.631100 -2.192510 6.469440 -0.000001 176.940000 26.523400 178.965000 -39.081100 -0.002282 -0.040193 -0.028080 0.091841 18.877400 -40.985400 0.000008 0.000006 5.175650 16.455600 -66.078500 -11.754300 -0.000006 -0.000006 -0.001676 -0.024585 -17.572800
0.000000 0.000000 0.000000 0.000000 0.000000 -0.000000 -1.708280 92.536400 0.041019 89.240900 0.160703 2.548070 15.735700 0.000005 -0.000001 75.845100 87.085600 -75.546300 8.984550 -0.406207 -0.000000 -2.110680 -1.450730 0.570780 16.377300 -0.000001 -0.000001 3.010400 -2.484850 1.260800 6.456720 -0.000001 -0.000000 -1.838670 -2.117910 2.681230 12.994200 -0.242716 4.980390 -86.778700 -6.529920 -63.670200 5.348090 -0.000007 -0.000001 -37.174900 -55.811400 -65.882100 24.328600 0.000019 0.000005 9.070220 3.890560 -66.975400 22.291600 -0.000001 0.000005 12.606300 5.352270 -1.445860 12.994500 -0.242716 -4.980390 92.025300 -5.542100 -69.892600 -5.348130 -0.000001 -0.000004 -27.862400 -53.415400 -56.170500 -24.328900 0.000322 -0.000009 -6.020200 -2.582730 -66.860900 -22.291500 -0.000108 -0.000004 19.211200 5.486790 -6.011060 -2.192480 -6.469440 -0.000000 -174.894000 -13.615600 -2.879320 39.081100 -0.000007 -0.000012 -0.085899 0.236458 19.964700 40.985400 -0.000006 -0.000013 -0.372843 9.909640 -64.336600 11.754300 -0.000000 0.000003 -0.000157 -0.001506 -16.634700 -2.192510 6.469440 -0.000001 176.761000 26.492900 179.087000 -39.081100 -0.002282 -0.040193 -0.040841 0.128613 18.951800 -40.985400 0.000008 0.000006 4.726180 16.960100 -65.905500 -11.754300 -0.000006 -0.000006 -0.001489 -0.022129 -17.472900
